<?xml version="1.0" encoding="utf-8"?>
<!-- Generator: Adobe Illustrator 16.0.3, SVG Export Plug-In . SVG Version: 6.00 Build 0)  -->
<!DOCTYPE svg PUBLIC "-//W3C//DTD SVG 1.1//EN" "http://www.w3.org/Graphics/SVG/1.1/DTD/svg11.dtd">
<svg version="1.1" id="Layer_1" xmlns="http://www.w3.org/2000/svg" xmlns:xlink="http://www.w3.org/1999/xlink" x="0px" y="0px"
	 width="35px" height="53px" viewBox="0 0 35 53" enable-background="new 0 0 35 53" xml:space="preserve">
<g>
	<g>
		<path d="M3.258,6.964H1.506V1.708H0.058V0.224h4.648v1.484H3.258V6.964z"/>
		<path d="M7.867,4.577h0.018l1.412-4.353h1.395l1.323,4.353h0.018l1.27-4.353h1.823l-2.154,6.74h-1.788l-1.181-3.906H9.985
			L8.662,6.964H6.884l-2.012-6.74h1.824L7.867,4.577z"/>
		<path d="M22.44,3.469c0,2.181-1.564,3.718-3.728,3.718c-2.163,0-3.727-1.537-3.727-3.718C14.986,1.431,16.773,0,18.713,0
			C20.653,0,22.44,1.431,22.44,3.469z M16.81,3.478c0,1.162,0.858,2.012,1.903,2.012c1.046,0,1.904-0.85,1.904-2.012
			c0-0.929-0.858-1.778-1.904-1.778C17.667,1.699,16.81,2.548,16.81,3.478z"/>
		<path d="M28.858,6.964h-2.181l-1.653-2.592h-0.019v2.592h-1.751v-6.74h2.618c1.332,0,2.343,0.634,2.343,2.074
			c0,0.93-0.52,1.734-1.475,1.903L28.858,6.964z M25.006,3.245h0.171c0.571,0,1.216-0.107,1.216-0.839
			c0-0.733-0.645-0.841-1.216-0.841h-0.171V3.245z"/>
		<path d="M28.233,0.224h2.101l1.261,1.833l1.261-1.833h2.1l-2.484,3.504v3.236h-1.753V3.728L28.233,0.224z"/>
		<path d="M4.277,12.063c-0.322-0.268-0.733-0.446-1.162-0.446c-0.323,0-0.751,0.187-0.751,0.563c0,0.394,0.473,0.545,0.777,0.643
			l0.447,0.134c0.939,0.277,1.663,0.751,1.663,1.841c0,0.671-0.161,1.358-0.697,1.814c-0.527,0.447-1.233,0.635-1.913,0.635
			c-0.848,0-1.68-0.287-2.368-0.769l0.75-1.413c0.438,0.384,0.957,0.697,1.555,0.697c0.411,0,0.85-0.206,0.85-0.679
			c0-0.492-0.688-0.661-1.063-0.769c-1.1-0.313-1.824-0.599-1.824-1.904c0-1.368,0.974-2.261,2.324-2.261
			c0.679,0,1.511,0.214,2.11,0.554L4.277,12.063z"/>
		<path d="M8.765,17.069H7.012v-5.256H5.564v-1.483h4.648v1.483H8.765V17.069z"/>
		<path d="M16.692,10.329v3.79c0,0.867-0.035,1.725-0.706,2.378c-0.563,0.554-1.448,0.751-2.234,0.751
			c-0.786,0-1.672-0.197-2.235-0.751c-0.67-0.653-0.706-1.511-0.706-2.378v-3.79h1.752v3.548c0,0.877,0.063,1.833,1.188,1.833
			c1.127,0,1.189-0.956,1.189-1.833v-3.548H16.692z"/>
		<path d="M17.802,10.329h2.485c1.877,0,3.423,1.475,3.423,3.37c0,1.895-1.555,3.37-3.423,3.37h-2.485V10.329z M19.554,15.585h0.394
			c1.046,0,1.938-0.572,1.938-1.886c0-1.207-0.795-1.887-1.922-1.887h-0.41V15.585z"/>
		<path d="M26.276,17.069h-1.753v-6.74h1.753V17.069z"/>
		<path d="M34.535,13.574c0,2.181-1.564,3.719-3.728,3.719s-3.728-1.538-3.728-3.719c0-2.038,1.788-3.468,3.728-3.468
			S34.535,11.536,34.535,13.574z M28.903,13.583c0,1.162,0.858,2.011,1.904,2.011s1.904-0.849,1.904-2.011
			c0-0.929-0.858-1.779-1.904-1.779S28.903,12.653,28.903,13.583z"/>
	</g>
	<g>
		<path d="M33.736,24.919H20.259v20.218h-6.736V24.919H0.045v2.247l0,0c0,3.715,3.023,6.739,6.739,6.739
			c1.724,0,3.299-0.651,4.493-1.721v12.953H3.415v2.246h3.369V53h6.739v-5.616h6.74V53h6.738v-5.616h3.37v-2.246h-7.866V32.185
			c1.193,1.069,2.768,1.721,4.493,1.721c3.716,0,6.738-3.024,6.738-6.739l0,0V24.919z M6.784,31.658
			c-2.478,0-4.493-2.014-4.493-4.492h8.986C11.277,29.645,9.261,31.658,6.784,31.658z M11.277,50.752H9.03v-3.368h2.247V50.752z
			 M24.755,50.752h-2.246v-3.368h2.246V50.752z M26.998,31.658c-2.478,0-4.493-2.014-4.493-4.492h8.985
			C31.49,29.645,29.475,31.658,26.998,31.658z"/>
		<path d="M26.998,29.862c1.488,0,2.695-1.208,2.695-2.696h-5.392C24.302,28.654,25.509,29.862,26.998,29.862z"/>
		<path d="M6.784,29.862c1.488,0,2.695-1.208,2.695-2.696H4.088C4.088,28.654,5.295,29.862,6.784,29.862z"/>
	</g>
</g>
</svg>
